<svg width="19" height="11" viewBox="0 0 19 11" fill="none" xmlns="http://www.w3.org/2000/svg">
<path d="M1.89 10.078C1.426 10.046 1.094 9.908 0.894 9.664C0.694 9.416 0.588 9.032 0.576 8.512C0.564 7.948 0.556 7.392 0.552 6.844C0.548 6.296 0.546 5.75 0.546 5.206C0.546 4.662 0.548 4.116 0.552 3.568C0.556 3.016 0.564 2.458 0.576 1.894C0.584 1.414 0.69 1.044 0.894 0.784C1.102 0.52 1.434 0.371999 1.89 0.339999V1.024C1.714 1.052 1.586 1.126 1.506 1.246C1.426 1.362 1.382 1.54 1.374 1.78C1.362 2.372 1.352 2.952 1.344 3.52C1.34 4.084 1.338 4.646 1.338 5.206C1.338 5.762 1.34 6.324 1.344 6.892C1.352 7.456 1.362 8.036 1.374 8.632C1.382 8.864 1.424 9.04 1.5 9.16C1.58 9.28 1.71 9.358 1.89 9.394V10.078ZM2.418 10.078V9.388C2.602 9.356 2.736 9.28 2.82 9.16C2.904 9.036 2.948 8.86 2.952 8.632C2.956 8.412 2.958 8.182 2.958 7.942C2.958 7.702 2.956 7.462 2.952 7.222C2.948 6.982 2.944 6.754 2.94 6.538H3.738C3.75 6.878 3.756 7.208 3.756 7.528C3.76 7.844 3.758 8.172 3.75 8.512C3.73 9.02 3.616 9.398 3.408 9.646C3.204 9.894 2.874 10.038 2.418 10.078ZM2.898 3.736C2.902 3.532 2.904 3.318 2.904 3.094C2.908 2.87 2.91 2.646 2.91 2.422C2.91 2.194 2.908 1.98 2.904 1.78C2.9 1.556 2.86 1.384 2.784 1.264C2.708 1.144 2.586 1.066 2.418 1.03V0.339999C2.854 0.38 3.172 0.524 3.372 0.771999C3.572 1.016 3.682 1.392 3.702 1.9C3.706 2.052 3.708 2.244 3.708 2.476C3.708 2.704 3.706 2.934 3.702 3.166C3.698 3.394 3.694 3.584 3.69 3.736H2.898ZM7.31569 10V0.4H8.10769V10H7.31569ZM8.62969 10V9.28H10.0217V10H8.62969ZM8.62969 5.524V4.81H9.90169V5.524H8.62969ZM8.62969 1.12V0.4H10.0217V1.12H8.62969ZM15.3652 9.958L15.0652 7.138L14.5552 1.12H13.4212V0.4H15.2212L15.5812 3.976L15.9832 9.238H16.1932L16.5952 3.922L16.9552 0.4H18.7732V1.12H17.6332L17.1232 7.156L16.8232 9.958H15.3652ZM13.4212 10V1.534H14.1472L14.2192 7.228V10H13.4212ZM17.9752 10V7.27L18.0472 1.534H18.7732V10H17.9752Z" fill="white"/>
</svg>
